<?xml version="1.0" encoding="utf-8"?>
<!-- Generator: Adobe Illustrator 18.1.0, SVG Export Plug-In . SVG Version: 6.00 Build 0)  -->
<svg version="1.1" id="Layer_1" xmlns="http://www.w3.org/2000/svg" xmlns:xlink="http://www.w3.org/1999/xlink" x="0px" y="0px"
	 viewBox="-155 247 300 300" enable-background="new -155 247 300 300" xml:space="preserve">
<g>
	<path fill="#DC3E3A" d="M-3.7,261.8c-74.6,0-135,60.4-135,135c0,74.6,60.4,135,135,135c74.6,0,135-60.4,135-135
		C131.3,322.2,70.9,261.8-3.7,261.8z M-3.7,512.7c-64,0-115.9-51.9-115.9-115.9c0-64,51.9-115.9,115.9-115.9
		c64,0,115.9,51.9,115.9,115.9C112.2,460.8,60.4,512.7-3.7,512.7z"/>
	<path fill="#DC3E3A" d="M100.8,396.8c0,57.7-46.8,104.4-104.4,104.4c-57.7,0-104.4-46.8-104.4-104.4c0-57.7,46.8-104.4,104.4-104.4
		C54,292.4,100.8,339.1,100.8,396.8z"/>
	<g>
		<path fill="#FFFFFF" d="M-3.7,335.7c14.3,0,25.9,11.6,25.9,25.9c0,14.3-11.6,25.9-25.9,25.9c-14.3,0-25.9-11.6-25.9-25.9
			S-18,335.7-3.7,335.7z"/>
		<path fill="#FFFFFF" d="M48.4,457.9H-55.7v-28.8c0-19.4,15.8-35.2,35.2-35.2h33.7c19.4,0,35.2,15.8,35.2,35.2L48.4,457.9
			L48.4,457.9z"/>
	</g>
</g>
</svg>
